
<svg width="160" height="160" viewBox="0 0 160 160" fill="none" xmlns="http://www.w3.org/2000/svg">
  <!-- Barbell -->
  <g stroke="rgba(255,255,255,0.6)" stroke-width="2.5" fill="none">
    <!-- Bar -->
    <line x1="40" y1="80" x2="120" y2="80"/>
    
    <!-- Left weights -->
    <rect x="25" y="65" width="20" height="30" rx="3"/>
    <rect x="30" y="70" width="10" height="20" rx="2"/>
    
    <!-- Right weights -->
    <rect x="115" y="65" width="20" height="30" rx="3"/>
    <rect x="120" y="70" width="10" height="20" rx="2"/>
    
    <!-- Grip marks -->
    <line x1="65" y1="77" x2="65" y2="83"/>
    <line x1="70" y1="77" x2="70" y2="83"/>
    <line x1="90" y1="77" x2="90" y2="83"/>
    <line x1="95" y1="77" x2="95" y2="83"/>
  </g>
  
  <!-- Progress bars (empty) -->
  <g stroke="rgba(255,255,255,0.4)" stroke-width="1.5" fill="none">
    <rect x="45" y="25" width="70" height="8" rx="4"/>
    <rect x="45" y="40" width="70" height="8" rx="4"/>
    <rect x="45" y="55" width="70" height="8" rx="4"/>
  </g>
  
  <!-- Accent fills (minimal) -->
  <rect x="47" y="27" width="12" height="4" rx="2" fill="rgba(94,106,210,0.6)"/>
  <rect x="47" y="42" width="8" height="4" rx="2" fill="rgba(94,106,210,0.4)"/>
  
  <!-- Workout notes -->
  <g stroke="rgba(255,255,255,0.3)" stroke-width="1" fill="none">
    <rect x="30" y="110" width="100" height="40" rx="6"/>
    <line x1="40" y1="120" x2="80" y2="120"/>
    <line x1="40" y1="130" x2="90" y2="130"/>
    <line x1="40" y1="140" x2="70" y2="140"/>
  </g>
  
  <!-- Stopwatch -->
  <circle cx="110" cy="30" r="12" stroke="rgba(255,255,255,0.5)" stroke-width="1.5" fill="none"/>
  <line x1="110" y1="25" x2="110" y2="30" stroke="rgba(94,106,210,0.8)" stroke-width="2"/>
  <line x1="110" y1="30" x2="114" y2="34" stroke="rgba(94,106,210,0.6)" stroke-width="1.5"/>
</svg>
