<svg version="1.1" id="Layer_1" xmlns="http://www.w3.org/2000/svg" xmlns:xlink="http://www.w3.org/1999/xlink" x="0px" y="0px"
	 width="100%" viewBox="0 0 1920 1920" enable-background="new 0 0 1920 1920" xml:space="preserve">
<path fill="none" opacity="1.000000" stroke="#000000" stroke-linecap="round" stroke-linejoin="round" stroke-width="4.000000"
	d="
M613.500000,886.500000 
	C614.598145,898.158264 616.192688,909.773987 616.500000,921.500000 
"/>
<path fill="none" opacity="1.000000" stroke="#000000" stroke-linecap="round" stroke-linejoin="round" stroke-width="22.000000"
	d="
M365.499969,875.500000 
	C370.499969,889.500000 375.487946,903.504333 380.502350,917.499146 
	C392.701752,951.546814 404.291595,985.796997 414.484741,1020.504456 
	C422.189758,1046.739990 429.185547,1073.190186 434.330963,1100.032349 
	C438.088531,1119.634277 441.104065,1139.419312 441.585663,1159.497925 
	C441.834656,1169.877441 442.367279,1180.216187 440.500000,1190.500000 
"/>
<path fill="none" opacity="1.000000" stroke="#000000" stroke-linecap="round" stroke-linejoin="round" stroke-width="22.000000"
	d="
M601.500000,877.500000 
	C595.157532,895.496765 588.646179,913.432495 582.365479,931.453125 
	C575.529175,951.067932 568.904602,970.741943 562.436340,990.479126 
	C555.941711,1010.296692 550.466064,1030.390991 544.971130,1050.492065 
	C539.507141,1070.479736 535.052612,1090.704224 531.130920,1111.025269 
	C528.906433,1122.552124 527.510132,1134.296265 526.623413,1146.009399 
	C525.502625,1160.812744 524.768982,1175.689819 527.000000,1190.500000 
"/>
<path fill="none" opacity="1.000000" stroke="#000000" stroke-linecap="round" stroke-linejoin="round" stroke-width="22.000000"
	d="
M1322.750000,1225.000000 
	C1316.274536,1257.018677 1308.626953,1288.724121 1297.500000,1319.500000 
"/>
<path fill="none" opacity="1.000000" stroke="#000000" stroke-linecap="round" stroke-linejoin="round" stroke-width="24.000000"
	d="
M616.500000,1291.500000 
	C615.570312,1301.812500 615.309021,1312.153564 614.902344,1322.496216 
	C614.272644,1338.510742 613.178223,1354.513794 611.938171,1370.495239 
	C611.095581,1381.353760 609.708618,1392.171387 608.468811,1402.996460 
	C608.179749,1405.520630 607.500000,1408.000000 607.000000,1410.500000 
"/>
<path fill="none" opacity="1.000000" stroke="#000000" stroke-linecap="round" stroke-linejoin="round" stroke-width="22.000000"
	d="
M589.000000,1529.000000 
	C587.000000,1540.500000 585.393921,1552.086792 582.883179,1563.474243 
	C580.616577,1573.754517 578.198242,1583.965332 577.500000,1594.500000 
"/>
<path fill="none" opacity="1.000000" stroke="#000000" stroke-linecap="round" stroke-linejoin="round" stroke-width="22.000000"
	d="
M351.500000,1291.500000 
	C352.557404,1313.172607 353.746399,1334.840210 354.827698,1356.508545 
	C355.682098,1373.629517 358.326508,1390.500610 360.000000,1407.500000 
"/>
<path fill="none" opacity="1.000000" stroke="#000000" stroke-linecap="round" stroke-linejoin="round" stroke-width="21.000000"
	d="
M378.250000,1527.000000 
	C380.666656,1540.166626 383.295654,1553.299194 385.426361,1566.511841 
	C386.879303,1575.521851 389.549744,1584.325073 390.000000,1593.500000 
"/>
<path fill="none" opacity="1.000000" stroke="#000000" stroke-linecap="round" stroke-linejoin="round" stroke-width="25.000000"
	d="
M550.000000,256.500000 
	C548.863464,247.808273 549.677368,239.179977 550.396057,230.491409 
	C551.283691,219.760193 552.208191,209.029160 548.190918,198.427643 
	C546.395203,193.688843 546.395630,188.183609 546.071228,182.995544 
	C545.698303,177.029694 543.755493,171.670059 541.000000,166.500000 
"/>
<path fill="none" opacity="1.000000" stroke="#000000" stroke-linecap="round" stroke-linejoin="round" stroke-width="25.000000"
	d="
M427.000000,166.000000 
	C423.424866,171.648834 421.852875,177.887238 421.494263,184.499695 
	C420.942017,194.682999 416.096558,204.158646 416.505890,214.499771 
	C416.809418,222.167618 416.762421,229.879150 417.624695,237.485870 
	C418.346954,243.857437 417.954010,250.163498 418.000000,256.500000 
"/>
<path fill="none" opacity="1.000000" stroke="#000000" stroke-linecap="round" stroke-linejoin="round" stroke-width="8.000000"
	d="
M342.000000,1338.500000 
	C341.333344,1343.166626 340.642548,1347.830078 340.005737,1352.500732 
	C339.078491,1359.301392 339.141632,1366.205078 338.362976,1372.984253 
	C336.640717,1387.979492 337.940765,1403.005859 337.186951,1418.009399 
	C336.695404,1427.792969 337.808990,1437.681152 338.553223,1447.495972 
	C339.312836,1457.514160 340.100708,1467.559814 341.587799,1477.486816 
	C344.227173,1495.106323 347.031555,1512.691284 351.397064,1530.025879 
	C356.826294,1551.584473 361.957184,1573.242065 366.312408,1595.037476 
	C368.583405,1606.402466 366.950165,1617.948486 363.029327,1629.010376 
	C362.643341,1630.099243 362.666656,1631.333374 362.500000,1632.500000 
"/>
<path fill="none" opacity="1.000000" stroke="#000000" stroke-linecap="round" stroke-linejoin="round" stroke-width="16.000000"
	d="
M625.500000,1339.500000 
	C627.736755,1352.743042 629.374878,1366.020020 629.586182,1379.498657 
	C629.797791,1392.998047 630.658386,1406.480957 630.557190,1420.000488 
	C630.445618,1434.908691 628.919373,1449.702515 627.452881,1464.495361 
	C623.899963,1500.333618 615.362671,1535.189697 606.654175,1570.038574 
	C603.634644,1582.121582 600.478210,1594.326416 600.468994,1607.000000 
	C600.464111,1613.741821 602.005493,1620.144775 603.982727,1626.505371 
	C604.593750,1628.470825 605.000000,1630.500000 605.500000,1632.500000 
"/>
<path fill="none" opacity="1.000000" stroke="#000000" stroke-linecap="round" stroke-linejoin="round" stroke-width="5.000000"
	d="
M1508.000000,1050.500000 
	C1507.536255,1058.704346 1507.224487,1066.928833 1505.483032,1074.996338 
	C1504.626465,1078.965576 1504.358398,1082.960449 1504.500000,1087.000000 
"/>
<path fill="none" opacity="1.000000" stroke="#000000" stroke-linecap="round" stroke-linejoin="round" stroke-width="24.000000"
	d="
M1512.250000,1187.000000 
	C1514.000000,1208.666626 1516.056641,1230.314331 1517.405273,1252.005859 
	C1518.533203,1270.143799 1518.923218,1288.331177 1519.367188,1306.503296 
	C1519.413940,1308.414673 1518.865234,1310.474854 1519.000000,1312.500000 
"/>
<path fill="none" opacity="1.000000" stroke="#000000" stroke-linecap="round" stroke-linejoin="round" stroke-width="21.000000"
	d="
M1553.250000,1227.000000 
	C1555.001221,1238.310669 1557.672852,1249.426025 1560.523315,1260.494019 
	C1564.092529,1274.352539 1567.593384,1288.236816 1571.607422,1301.968628 
	C1573.448486,1308.267212 1575.445679,1314.606079 1578.500000,1320.500000 
"/>
<path fill="none" opacity="1.000000" stroke="#000000" stroke-linecap="round" stroke-linejoin="round" stroke-width="3.000000"
	d="
M1544.500000,402.000000 
	C1538.106567,404.523926 1531.481201,406.496918 1525.500000,410.000000 
"/>
<path fill="none" opacity="1.000000" stroke="#000000" stroke-linecap="round" stroke-linejoin="round" stroke-width="6.000000"
	d="
M1459.500000,579.000000 
	C1455.726929,593.280518 1453.406738,607.810242 1451.977051,622.497742 
	C1451.813110,624.180908 1451.333252,625.833313 1450.999878,627.500000 
"/>
<path fill="none" opacity="1.000000" stroke="#000000" stroke-linecap="round" stroke-linejoin="round" stroke-width="3.000000"
	d="
M1330.500000,402.000000 
	C1337.366699,403.772980 1343.649780,406.968323 1350.000000,410.000000 
"/>
<path fill="none" opacity="1.000000" stroke="#000000" stroke-linecap="round" stroke-linejoin="round" stroke-width="8.000000"
	d="
M1416.250000,579.000000 
	C1419.783325,595.014893 1422.640747,611.137756 1424.000000,627.500000 
"/>
<path fill="none" opacity="1.000000" stroke="#000000" stroke-linecap="round" stroke-linejoin="round" stroke-width="18.000000"
	d="
M772.500000,819.000000 
	C779.145874,842.172668 786.468933,865.149353 792.527344,888.492920 
	C794.010437,894.207214 795.833313,899.833313 797.500000,905.500000 
"/>
<path fill="none" opacity="1.000000" stroke="#000000" stroke-linecap="round" stroke-linejoin="round" stroke-width="22.000000"
	d="
M195.500000,818.000000 
	C191.050186,830.439941 188.287552,843.368408 184.496872,855.999084 
	C180.343994,869.836548 176.124435,883.654236 172.037674,897.511108 
	C171.274109,900.100098 171.000000,902.833313 170.500000,905.500000 
"/>
<path fill="none" opacity="1.000000" stroke="#000000" stroke-linecap="round" stroke-linejoin="round" stroke-width="24.000000"
	d="
M1596.000000,984.500000 
	C1593.333374,1001.833313 1590.444580,1019.136414 1588.073975,1036.510132 
	C1586.333740,1049.263672 1585.216675,1062.102417 1584.976685,1074.999512 
	C1584.861816,1081.173218 1583.742798,1087.285889 1583.951538,1093.501587 
	C1584.169556,1099.994263 1584.101562,1106.502075 1583.971069,1112.999390 
	C1583.843872,1119.332886 1583.589111,1125.708740 1583.730835,1131.994751 
	C1583.904175,1139.683228 1583.494995,1147.333374 1583.487671,1155.000000 
	C1583.476929,1166.369141 1583.153564,1177.776855 1581.331299,1188.972534 
	C1580.023315,1197.007690 1579.105469,1205.190796 1576.547607,1213.015503 
	C1576.203003,1214.069580 1576.500000,1215.333374 1576.500000,1216.500000 
"/>
<path fill="none" opacity="1.000000" stroke="#000000" stroke-linecap="round" stroke-linejoin="round" stroke-width="3.000000"
	d="
M1341.500000,1290.500000 
	C1344.551880,1309.453003 1348.030273,1328.322998 1352.514893,1346.996460 
	C1352.561768,1347.191895 1352.833252,1347.333374 1353.000000,1347.500000 
"/>
<path fill="none" opacity="1.000000" stroke="#000000" stroke-linecap="round" stroke-linejoin="round" stroke-width="24.000000"
	d="
M1279.500000,985.500000 
	C1282.173340,1003.499023 1286.230103,1021.257080 1287.665405,1039.486938 
	C1288.794067,1053.821167 1290.238159,1068.129028 1291.057129,1082.496704 
	C1291.807861,1095.667969 1291.467773,1108.832397 1291.485352,1122.000000 
	C1291.516602,1145.377075 1291.756592,1168.753052 1294.579956,1191.990234 
	C1295.579590,1200.217651 1297.500000,1208.333374 1299.000000,1216.500000 
"/>
<path fill="none" opacity="1.000000" stroke="#000000" stroke-linecap="round" stroke-linejoin="round" stroke-width="23.000000"
	d="
M1533.500000,1290.500000 
	C1531.999023,1306.735962 1527.914795,1322.515015 1524.946533,1338.490112 
	C1524.314453,1341.891846 1523.000000,1345.166626 1522.000000,1348.500000 
"/>
<path fill="none" opacity="1.000000" stroke="#000000" stroke-linecap="round" stroke-linejoin="round" stroke-width="3.000000"
	d="
M548.500000,1360.500000 
	C550.666687,1374.166626 552.833313,1387.833374 555.000000,1401.500000 
"/>
<path fill="none" opacity="1.000000" stroke="#000000" stroke-linecap="round" stroke-linejoin="round" stroke-width="12.000000"
	d="
M559.000000,1502.000000 
	C560.333374,1516.333374 561.928162,1530.648804 562.907837,1545.006348 
	C563.557800,1554.531860 564.342712,1564.028442 565.500000,1573.500000 
"/>
<path fill="none" opacity="1.000000" stroke="#000000" stroke-linecap="round" stroke-linejoin="round" stroke-width="3.000000"
	d="
M419.000000,1361.500000 
	C417.898438,1372.786865 415.589111,1383.875000 413.509918,1395.001831 
	C413.107483,1397.155518 412.833344,1399.333374 412.500000,1401.500000 
"/>
<path fill="none" opacity="1.000000" stroke="#000000" stroke-linecap="round" stroke-linejoin="round" stroke-width="5.000000"
	d="
M408.500000,1500.500000 
	C407.500000,1512.833374 406.514191,1525.167847 405.495667,1537.499634 
	C404.627441,1548.011841 404.250671,1558.572144 402.489227,1568.998169 
	C402.233582,1570.511353 401.833313,1572.000000 401.500000,1573.500000 
"/>
<path fill="none" opacity="1.000000" stroke="#000000" stroke-linecap="round" stroke-linejoin="round" stroke-width="20.000000"
	d="
M1709.500000,709.500000 
	C1707.664429,722.950378 1705.164673,736.321716 1705.461182,750.000854 
	C1705.663452,759.329773 1705.500000,768.666687 1705.500000,778.000000 
"/>
<path fill="none" opacity="1.000000" stroke="#000000" stroke-linecap="round" stroke-linejoin="round" stroke-width="19.000000"
	d="
M1712.500000,827.000000 
	C1718.369019,846.925842 1723.920532,866.959473 1731.074097,886.472839 
	C1734.256470,895.153259 1737.055298,904.051270 1742.000000,912.000000 
"/>
<path fill="none" opacity="1.000000" stroke="#000000" stroke-linecap="round" stroke-linejoin="round" stroke-width="25.000000"
	d="
M1166.000000,710.500000 
	C1170.033447,732.000488 1170.682617,753.709290 1170.000000,775.500000 
"/>
<path fill="none" opacity="1.000000" stroke="#000000" stroke-linecap="round" stroke-linejoin="round" stroke-width="14.000000"
	d="
M1162.750000,826.000000 
	C1159.254272,838.907654 1155.581299,851.756531 1151.583496,864.526123 
	C1146.484985,880.811768 1140.696167,896.814575 1134.000000,912.500000 
"/>
<path fill="none" opacity="1.000000" stroke="#000000" stroke-linecap="round" stroke-linejoin="round" stroke-width="9.000000"
	d="
M1396.500000,1136.500000 
	C1398.187256,1159.582642 1392.166260,1181.498657 1386.548096,1203.512329 
	C1381.992188,1221.363403 1379.766602,1239.525391 1379.376465,1257.997437 
	C1379.055176,1273.212524 1377.825195,1288.388306 1375.717651,1303.530273 
	C1374.270996,1313.924194 1372.258911,1324.181519 1370.500000,1334.500000 
"/>
<path fill="none" opacity="1.000000" stroke="#000000" stroke-linecap="round" stroke-linejoin="round" stroke-width="19.000000"
	d="
M263.250000,706.500000 
	C261.238129,714.394592 260.827515,722.549866 259.141937,730.529968 
	C255.808792,746.310547 250.937317,761.423645 243.002213,775.501221 
	C226.338608,805.063965 213.820511,836.487000 201.491592,867.996704 
	C197.025314,879.411499 193.334503,891.146729 187.526398,902.014099 
	C187.318542,902.403015 187.500000,903.000000 187.500000,903.500000 
"/>
<path fill="none" opacity="1.000000" stroke="#000000" stroke-linecap="round" stroke-linejoin="round" stroke-width="19.000000"
	d="
M323.000000,1053.500000 
	C325.903900,1072.446899 327.972992,1091.513916 330.702209,1110.470947 
	C334.485260,1136.748169 339.736053,1162.801270 348.467285,1188.011353 
	C351.876862,1197.856079 357.134491,1206.915771 360.091217,1216.973145 
	C363.135345,1227.328125 366.101807,1237.635132 366.500000,1248.500000 
"/>
<path fill="none" opacity="1.000000" stroke="#000000" stroke-linecap="round" stroke-linejoin="round" stroke-width="20.000000"
	d="
M644.500000,1054.500000 
	C643.833313,1059.166626 643.146301,1063.830566 642.504028,1068.500610 
	C640.991333,1079.498779 639.507019,1090.500977 637.998291,1101.499756 
	C635.788391,1117.609863 633.240417,1133.645386 629.582947,1149.519165 
	C626.150635,1164.415283 622.866760,1179.338867 616.946777,1193.477661 
	C612.273743,1204.638428 607.336365,1215.663208 604.455200,1227.489136 
	C602.806091,1234.258057 601.854065,1241.113281 601.000000,1248.000000 
"/>
<path fill="none" opacity="1.000000" stroke="#000000" stroke-linecap="round" stroke-linejoin="round" stroke-width="7.000000"
	d="
M691.000000,717.500000 
	C687.004944,724.833313 688.347656,732.104492 690.967224,739.511597 
	C698.989380,762.194946 707.724731,784.490601 721.440002,804.541016 
	C730.330139,817.537354 736.271240,832.120728 742.477783,846.509583 
	C751.232117,866.805115 759.864685,887.153503 768.423340,907.532227 
	C768.945068,908.774536 769.032959,910.033569 770.500000,910.500000 
"/>
<path fill="none" opacity="1.000000" stroke="#000000" stroke-linecap="round" stroke-linejoin="round" stroke-width="22.000000"
	d="
M1363.750122,1184.000000 
	C1362.166748,1199.333374 1360.048828,1214.635498 1359.155151,1230.009033 
	C1358.313232,1244.492188 1357.203491,1258.966797 1356.817139,1273.495117 
	C1356.470947,1286.504883 1356.570435,1299.498779 1356.500000,1312.500000 
"/>
<path fill="none" opacity="1.000000" stroke="#000000" stroke-linecap="round" stroke-linejoin="round" stroke-width="11.000000"
	d="
M703.750000,705.500000 
	C706.770447,712.349609 706.588989,719.854614 707.829651,727.029480 
	C711.483887,748.163452 719.329956,767.622314 730.063721,785.962708 
	C739.419739,801.948914 746.292725,819.058594 753.402222,836.040955 
	C761.981689,856.534729 769.837769,877.331604 777.991516,898.003357 
	C778.638977,899.644714 779.166687,901.333313 779.750000,903.000000 
"/>
<path fill="none" opacity="1.000000" stroke="#000000" stroke-linecap="round" stroke-linejoin="round" stroke-width="11.000000"
	d="
M1152.500000,725.500000 
	C1153.955444,733.294189 1152.143188,740.854614 1151.059937,748.508484 
	C1149.177612,761.811279 1148.025391,775.224243 1145.898193,788.483643 
	C1143.811035,801.494019 1141.868408,814.532532 1139.681763,827.530579 
	C1137.130981,842.693970 1134.101929,857.701782 1129.978760,872.494080 
	C1126.951904,883.353760 1123.141724,893.936279 1117.991455,903.995667 
	C1116.892212,906.142822 1115.803833,908.313660 1114.000000,910.000000 
"/>
<path fill="none" opacity="1.000000" stroke="#000000" stroke-linecap="round" stroke-linejoin="round" stroke-width="7.000000"
	d="
M279.500000,728.000000 
	C272.430298,755.549316 261.523376,781.330627 245.634216,805.089783 
	C237.468445,817.300171 231.697357,830.930847 225.980453,844.491760 
	C216.552475,866.855408 207.000000,889.166687 197.500000,911.500000 
"/>
<path fill="none" opacity="1.000000" stroke="#000000" stroke-linecap="round" stroke-linejoin="round" stroke-width="11.000000"
	d="
M1723.000000,725.500000 
	C1721.376221,732.211426 1722.868652,738.896301 1723.624023,745.485779 
	C1725.024292,757.702148 1727.224121,769.825012 1728.984497,782.002258 
	C1730.886475,795.158997 1732.362183,808.384766 1734.576660,821.487061 
	C1737.387573,838.119507 1740.207764,854.768616 1744.978149,871.006409 
	C1748.645142,883.488098 1752.539917,895.858032 1759.508179,906.994873 
	C1760.326660,908.302917 1760.727173,909.995728 1762.500000,910.500000 
"/>
<path fill="none" opacity="1.000000" stroke="#000000" stroke-linecap="round" stroke-linejoin="round" stroke-width="5.000000"
	d="
M1646.500000,737.750000 
	C1655.555786,742.715332 1659.190796,751.450684 1662.523682,760.491272 
	C1672.947510,788.766418 1685.549561,816.146301 1696.985962,844.005798 
	C1704.784912,863.004639 1713.299194,881.654297 1723.519165,899.489075 
	C1724.711548,901.569763 1726.166626,903.500000 1727.500000,905.500000 
"/>
<path fill="none" opacity="1.000000" stroke="#000000" stroke-linecap="round" stroke-linejoin="round" stroke-width="18.000000"
	d="
M1330.000000,1710.500000 
	C1330.425415,1687.895752 1328.550171,1665.436279 1326.068848,1642.992432 
	C1324.839233,1631.869507 1324.576660,1620.641846 1323.443115,1609.505737 
	C1321.721924,1592.595581 1320.171143,1575.643311 1316.472778,1559.005981 
	C1315.025269,1552.493774 1314.136230,1552.000000 1306.500000,1552.000000 
"/>
<path fill="none" opacity="1.000000" stroke="#000000" stroke-linecap="round" stroke-linejoin="round" stroke-width="18.000000"
	d="
M1230.500000,737.500000 
	C1224.066528,740.399902 1219.037476,744.761230 1216.515869,751.505920 
	C1205.594971,780.715088 1193.028442,809.247742 1180.965088,837.985352 
	C1172.332153,858.551208 1163.876099,879.220520 1152.465088,898.479309 
	C1151.010986,900.933350 1149.784302,903.607849 1147.500000,905.500000 
"/>
<path fill="none" opacity="1.000000" stroke="#000000" stroke-linecap="round" stroke-linejoin="round" stroke-width="24.000000"
	d="
M1350.000000,1549.500000 
	C1350.000000,1550.166626 1349.776123,1550.938965 1350.033325,1551.484253 
	C1354.895874,1561.795776 1351.260498,1572.490479 1351.469971,1583.000610 
	C1351.686523,1593.858154 1350.836670,1604.681152 1350.010132,1615.500732 
	C1349.131836,1626.997314 1348.203735,1638.492432 1347.536499,1650.002075 
	C1346.870239,1661.492432 1346.421021,1672.997314 1346.025879,1684.500854 
	C1345.728394,1693.162964 1345.666626,1701.833374 1345.500000,1710.500000 
"/>
<path fill="none" opacity="1.000000" stroke="#000000" stroke-linecap="round" stroke-linejoin="round" stroke-width="24.000000"
	d="
M643.500000,511.500000 
	C642.530212,524.656494 642.706299,537.842590 643.127686,550.995911 
	C643.375671,558.734924 646.300171,566.123108 648.590820,573.471680 
	C656.354553,598.378479 665.759583,622.660583 677.488831,646.005615 
	C682.053040,655.089966 686.297241,664.347473 692.500000,672.500000 
"/>
<path fill="none" opacity="1.000000" stroke="#000000" stroke-linecap="round" stroke-linejoin="round" stroke-width="19.000000"
	d="
M1561.000000,1553.500000 
	C1557.623291,1562.881836 1556.356812,1572.708496 1555.031616,1582.504272 
	C1553.639648,1592.794189 1553.104004,1603.192505 1551.852661,1613.482056 
	C1549.909180,1629.463013 1548.959839,1645.526489 1547.206787,1661.522705 
	C1545.392700,1678.076050 1544.871094,1694.799438 1545.500000,1711.500000 
"/>
<path fill="none" opacity="1.000000" stroke="#000000" stroke-linecap="round" stroke-linejoin="round" stroke-width="25.000000"
	d="
M595.000000,860.000000 
	C586.833313,872.000000 578.296997,883.768372 570.596130,896.060242 
	C561.523499,910.541748 553.831421,925.815857 547.000000,941.500000 
"/>
<path fill="none" opacity="1.000000" stroke="#000000" stroke-linecap="round" stroke-linejoin="round" stroke-width="5.000000"
	d="
M1348.500000,753.500000 
	C1350.000000,761.166687 1351.500000,768.833313 1353.000000,776.500000 
"/>
<path fill="none" opacity="1.000000" stroke="#000000" stroke-linecap="round" stroke-linejoin="round" stroke-width="22.000000"
	d="
M372.500000,859.500000 
	C375.614594,866.525513 380.447388,872.472229 385.084900,878.433960 
	C396.625397,893.269897 405.227203,909.770874 413.503021,926.498535 
	C415.816620,931.174927 418.166687,935.833313 420.500000,940.500000 
"/>
<path fill="none" opacity="1.000000" stroke="#000000" stroke-linecap="round" stroke-linejoin="round" stroke-width="10.000000"
	d="
M446.000000,1011.000000 
	C446.097931,1018.460144 446.069519,1025.904541 443.250000,1033.000000 
"/>
<path fill="none" opacity="1.000000" stroke="#000000" stroke-linecap="round" stroke-linejoin="round" stroke-width="3.000000"
	d="
M1505.000000,533.500000 
	C1507.260132,540.317749 1508.529175,547.300720 1508.500000,554.500000 
"/>
<path fill="none" opacity="1.000000" stroke="#000000" stroke-linecap="round" stroke-linejoin="round" stroke-width="3.000000"
	d="
M1526.500000,754.000000 
	C1525.446777,761.589355 1524.655151,769.231018 1522.000000,776.500000 
"/>
<path fill="none" opacity="1.000000" stroke="#000000" stroke-linecap="round" stroke-linejoin="round" stroke-width="6.000000"
	d="
M465.500000,932.000000 
	C467.919373,937.717163 472.788544,942.018066 474.750000,948.000000 
"/>
<path fill="none" opacity="1.000000" stroke="#000000" stroke-linecap="round" stroke-linejoin="round" stroke-width="7.000000"
	d="
M501.750000,932.000000 
	C500.032349,937.699402 495.763611,941.910706 493.000000,947.000000 
"/>
<path fill="none" opacity="1.000000" stroke="#000000" stroke-linecap="round" stroke-linejoin="round" stroke-width="11.000000"
	d="
M1417.000000,647.500000 
	C1416.604858,660.374817 1413.580444,672.869080 1411.500000,685.500000 
"/>
<path fill="none" opacity="1.000000" stroke="#000000" stroke-linecap="round" stroke-linejoin="round" stroke-width="8.000000"
	d="
M1412.500000,827.500000 
	C1415.880493,833.934143 1418.730225,840.593811 1421.000000,847.500000 
"/>
<path fill="none" opacity="1.000000" stroke="#000000" stroke-linecap="round" stroke-linejoin="round" stroke-width="5.000000"
	d="
M1462.500000,827.500000 
	C1459.833374,833.833313 1457.166626,840.166687 1454.500000,846.500000 
"/>
<path fill="none" opacity="1.000000" stroke="#000000" stroke-linecap="round" stroke-linejoin="round" stroke-width="22.000000"
	d="
M414.500000,1112.500000 
	C418.017212,1123.419312 419.794647,1134.703369 421.494293,1146.000854 
	C423.563934,1159.757446 424.289734,1173.620483 423.917267,1187.497803 
	C423.647766,1197.539795 422.575836,1207.533081 421.248596,1217.532959 
	C420.271729,1224.892578 418.514313,1232.368652 419.899994,1240.018066 
	C420.536255,1243.530396 421.650970,1246.783936 423.039124,1249.983032 
	C423.751953,1251.625977 424.170258,1253.232666 424.000000,1255.000000 
"/>
<path fill="none" opacity="1.000000" stroke="#000000" stroke-linecap="round" stroke-linejoin="round" stroke-width="3.000000"
	d="
M1604.000000,567.500000 
	C1606.971436,575.487305 1610.140503,583.390564 1614.000000,591.000000 
"/>
<path fill="none" opacity="1.000000" stroke="#000000" stroke-linecap="round" stroke-linejoin="round" stroke-width="22.000000"
	d="
M1636.500000,648.500000 
	C1640.558472,655.641602 1642.538208,663.490173 1643.409180,671.509888 
	C1644.645142,682.891907 1649.168091,693.260742 1652.562256,703.980286 
	C1653.040405,705.490601 1653.315796,706.966858 1653.500000,708.500000 
"/>
<path fill="none" opacity="1.000000" stroke="#000000" stroke-linecap="round" stroke-linejoin="round" stroke-width="22.000000"
	d="
M552.500000,1113.500000 
	C548.110352,1130.748047 545.289124,1148.300171 544.173950,1166.010986 
	C543.400635,1178.292725 543.747559,1190.658813 544.824524,1203.015259 
	C545.655396,1212.548950 547.193176,1221.977051 548.062866,1231.494263 
	C548.694214,1238.404175 547.204041,1244.787231 544.456787,1250.980835 
	C544.014343,1251.978394 543.344971,1252.837158 543.500000,1254.000000 
"/>
<path fill="none" opacity="1.000000" stroke="#000000" stroke-linecap="round" stroke-linejoin="round" stroke-width="8.000000"
	d="
M1302.500000,425.500000 
	C1294.833374,425.833344 1287.166626,426.166656 1279.500000,426.500000 
"/>
<path fill="none" opacity="1.000000" stroke="#000000" stroke-linecap="round" stroke-linejoin="round" stroke-width="6.000000"
	d="
M1225.500000,509.500031 
	C1222.083374,515.000000 1218.666748,520.500000 1215.250000,526.000000 
"/>
<path fill="none" opacity="1.000000" stroke="#000000" stroke-linecap="round" stroke-linejoin="round" stroke-width="7.000000"
	d="
M1311.500000,1677.500000 
	C1313.097656,1686.316772 1315.402954,1694.936768 1316.327393,1703.966431 
	C1317.207397,1712.562622 1317.764648,1721.609253 1322.463745,1729.521484 
	C1327.550903,1738.087158 1325.778931,1736.204956 1333.467285,1737.242188 
	C1345.245483,1738.831177 1348.996826,1731.246826 1353.039551,1723.019409 
	C1355.775391,1717.452026 1356.341187,1711.515991 1357.071045,1705.508667 
	C1357.886597,1698.797119 1357.949829,1691.924561 1360.500000,1685.500000 
"/>
<path fill="none" opacity="1.000000" stroke="#000000" stroke-linecap="round" stroke-linejoin="round" stroke-width="8.000000"
	d="
M361.500000,743.500000 
	C362.760223,752.368225 366.748749,760.308777 370.000000,768.500000 
"/>
<path fill="none" opacity="1.000000" stroke="#000000" stroke-linecap="round" stroke-linejoin="round" stroke-width="11.000000"
	d="
M394.500000,850.000000 
	C397.435333,857.376526 401.377258,864.028381 408.000000,868.750000 
"/>
<path fill="none" opacity="1.000000" stroke="#000000" stroke-linecap="round" stroke-linejoin="round" stroke-width="10.000000"
	d="
M1564.000000,1677.500000 
	C1560.292358,1689.726807 1559.126831,1702.340698 1557.877930,1714.987915 
	C1557.152710,1722.331421 1554.864868,1729.409668 1549.498535,1734.998535 
	C1549.008911,1735.508545 1548.549927,1736.065918 1547.991455,1736.488647 
	C1545.101440,1738.677490 1531.209961,1737.076416 1529.011475,1734.241089 
	C1521.774536,1724.907715 1518.091919,1714.329102 1517.990723,1702.500122 
	C1517.941406,1696.725586 1517.059937,1691.059814 1515.500000,1685.500000 
"/>
<path fill="none" opacity="1.000000" stroke="#000000" stroke-linecap="round" stroke-linejoin="round" stroke-width="22.000000"
	d="
M1238.500000,648.500000 
	C1233.496582,658.053772 1232.250488,668.615356 1230.578491,679.012634 
	C1229.491089,685.773499 1227.231567,692.145630 1224.863281,698.448608 
	C1223.494385,702.092163 1222.542236,705.708496 1222.000000,709.500000 
"/>
<path fill="none" opacity="1.000000" stroke="#000000" stroke-linecap="round" stroke-linejoin="round" stroke-width="8.000000"
	d="
M606.500000,743.500000 
	C604.705383,752.027039 601.167175,759.949158 598.000000,768.000000 
"/>
<path fill="none" opacity="1.000000" stroke="#000000" stroke-linecap="round" stroke-linejoin="round" stroke-width="25.000000"
	d="
M1525.500000,1551.000000 
	C1521.086060,1559.378418 1523.075195,1568.279053 1523.561157,1576.996582 
	C1524.072144,1586.162109 1524.259766,1595.329468 1524.576172,1604.497314 
	C1524.898560,1613.842651 1525.771973,1623.171509 1526.516357,1632.498657 
	C1527.340332,1642.822998 1528.292358,1653.129639 1528.552246,1663.498657 
	C1528.815552,1674.004639 1529.569824,1684.497314 1529.968750,1695.001221 
	C1530.151978,1699.827637 1530.000000,1704.666626 1530.000000,1709.500000 
"/>
<path fill="none" opacity="1.000000" stroke="#000000" stroke-linecap="round" stroke-linejoin="round" stroke-width="24.000000"
	d="
M324.500000,513.500000 
	C324.355377,525.166687 325.233215,536.826172 324.538818,548.502319 
	C324.001312,557.539734 321.087585,565.950989 318.550781,574.515015 
	C310.503967,601.680481 299.483337,627.635620 286.947449,652.973999 
	C284.138763,658.651123 280.765533,664.060425 277.457947,669.474304 
	C275.823944,672.148865 274.541718,674.786804 275.000000,678.000000 
"/>
<path fill="none" opacity="1.000000" stroke="#000000" stroke-linecap="round" stroke-linejoin="round" stroke-width="3.000000"
	d="
M354.500000,885.500000 
	C352.993500,892.588379 352.649811,899.816162 352.045319,907.003784 
	C351.640472,911.817078 351.666656,916.666687 351.500000,921.500000 
"/>
<path fill="none" opacity="1.000000" stroke="#000000" stroke-linecap="round" stroke-linejoin="round" stroke-width="8.000000"
	d="
M1332.500000,1289.500000 
	C1329.000000,1299.166626 1325.471313,1308.823120 1322.014038,1318.505005 
	C1320.596436,1322.474976 1319.333374,1326.500000 1318.000000,1330.500000 
"/>
<path fill="none" opacity="1.000000" stroke="#000000" stroke-linecap="round" stroke-linejoin="round" stroke-width="12.000000"
	d="
M427.000000,1280.500000 
	C426.940186,1298.589355 420.234070,1314.959717 414.055847,1331.520874 
	C407.127777,1350.091919 397.328979,1367.399536 390.493256,1385.997559 
	C388.301453,1391.960693 384.927368,1397.511841 384.250000,1404.000000 
"/>
<path fill="none" opacity="1.000000" stroke="#000000" stroke-linecap="round" stroke-linejoin="round" stroke-width="12.000000"
	d="
M540.500000,1281.500000 
	C542.359680,1308.866455 553.892212,1333.101318 564.958313,1357.518921 
	C570.847961,1370.514526 576.724609,1383.530884 581.497742,1397.000854 
	C582.364197,1399.446045 583.798889,1401.742554 583.500000,1404.500000 
"/>
<path fill="none" opacity="1.000000" stroke="#000000" stroke-linecap="round" stroke-linejoin="round" stroke-width="11.000000"
	d="
M1479.500000,375.500000 
	C1480.333374,376.000000 1481.107178,376.693176 1482.009033,376.970764 
	C1493.950562,380.646423 1506.180054,383.032532 1518.500000,385.000000 
"/>
<path fill="none" opacity="1.000000" stroke="#000000" stroke-linecap="round" stroke-linejoin="round" stroke-width="1.000000"
	d="
M1416.500000,303.500000 
	C1416.208862,308.829437 1417.092529,314.195587 1416.000000,319.500000 
"/>
<path fill="none" opacity="1.000000" stroke="#000000" stroke-linecap="round" stroke-linejoin="round" stroke-width="6.000000"
	d="
M1395.500000,375.500000 
	C1393.545166,377.383240 1391.007568,377.934875 1388.497803,378.489807 
	C1377.836426,380.847107 1367.166626,383.166656 1356.500000,385.500000 
"/>
<path fill="none" opacity="1.000000" stroke="#000000" stroke-linecap="round" stroke-linejoin="round" stroke-width="9.000000"
	d="
M1479.000000,1138.500000 
	C1479.166626,1146.666626 1478.615234,1154.927490 1479.670532,1162.977661 
	C1481.203735,1174.673584 1484.717773,1186.025635 1487.418823,1197.519043 
	C1491.858398,1216.410400 1495.955688,1235.293457 1495.727539,1255.002686 
	C1495.553589,1270.012573 1497.464600,1285.037109 1499.169800,1300.009155 
	C1500.451904,1311.266479 1502.771729,1322.329956 1504.500000,1333.500000 
"/>
<path fill="none" opacity="1.000000" stroke="#000000" stroke-linecap="round" stroke-linejoin="round" stroke-width="17.000000"
	d="
M1300.500000,887.500000 
	C1305.530884,877.143555 1313.011230,868.493164 1319.996826,859.497559 
	C1321.018921,858.181458 1321.999878,856.833252 1322.999878,855.499939 
"/>
<path fill="none" opacity="1.000000" stroke="#000000" stroke-linecap="round" stroke-linejoin="round" stroke-width="17.000000"
	d="
M1356.500000,835.499939 
	C1363.333374,835.333313 1370.174194,835.310486 1376.997559,834.954041 
	C1382.392822,834.672180 1387.479736,835.758606 1392.500000,837.500000 
"/>
<path fill="none" opacity="1.000000" stroke="#000000" stroke-linecap="round" stroke-linejoin="round" stroke-width="24.000000"
	d="
M1669.500000,584.500000 
	C1668.333374,596.666687 1667.130981,608.830017 1666.012695,621.001160 
	C1665.283325,628.939941 1667.931030,636.437805 1669.626221,643.971619 
	C1672.933105,658.667542 1676.498779,673.262329 1675.500000,688.500000 
"/>
<path fill="none" opacity="1.000000" stroke="#000000" stroke-linecap="round" stroke-linejoin="round" stroke-width="25.000000"
	d="
M1206.000000,584.500000 
	C1207.166626,597.666687 1208.875244,610.816101 1209.294189,624.006531 
	C1209.540283,631.758301 1206.389893,639.317688 1205.058228,647.010071 
	C1202.707275,660.590454 1198.673584,673.971436 1199.750000,688.000000 
"/>
<path fill="none" opacity="1.000000" stroke="#000000" stroke-linecap="round" stroke-linejoin="round" stroke-width="15.000000"
	d="
M1273.750000,480.500000 
	C1275.228271,485.056366 1274.697876,489.944885 1276.413086,494.532471 
	C1278.674561,500.580475 1281.258667,506.429352 1284.500000,512.000000 
"/>
<path fill="none" opacity="1.000000" stroke="#000000" stroke-linecap="round" stroke-linejoin="round" stroke-width="16.000000"
	d="
M1316.000000,534.000000 
	C1324.445435,535.725220 1332.909424,536.552856 1341.505981,535.034119 
	C1345.470581,534.333679 1349.500000,534.000000 1353.500000,533.500000 
"/>
<path fill="none" opacity="1.000000" stroke="#000000" stroke-linecap="round" stroke-linejoin="round" stroke-width="11.000000"
	d="
M1600.750000,480.500000 
	C1601.724731,492.017212 1596.801392,501.648712 1591.009399,511.005798 
	C1590.934814,511.126282 1591.000000,511.333344 1591.000000,511.500000 
"/>
<path fill="none" opacity="1.000000" stroke="#000000" stroke-linecap="round" stroke-linejoin="round" stroke-width="19.000000"
	d="
M439.500000,319.500000 
	C443.399261,328.308105 445.520416,337.598267 447.686401,346.956848 
	C449.432953,354.503143 452.455627,361.831940 455.577301,368.966187 
	C462.441864,384.654510 467.899261,400.761749 471.500000,417.500000 
"/>
<path fill="none" opacity="1.000000" stroke="#000000" stroke-linecap="round" stroke-linejoin="round" stroke-width="19.000000"
	d="
M527.500000,321.500000 
	C524.841309,328.140533 522.708618,334.873230 521.361206,341.973663 
	C519.265869,353.016144 513.988098,363.058258 509.977997,373.491547 
	C504.458405,387.852173 499.261353,402.299896 496.500000,417.500000 
"/>
<path fill="none" opacity="1.000000" stroke="#000000" stroke-linecap="round" stroke-linejoin="round" stroke-width="6.000000"
	d="
M617.000000,420.500000 
	C610.405090,419.852844 604.465149,422.234680 598.500000,424.500000 
"/>
<path fill="none" opacity="1.000000" stroke="#000000" stroke-linecap="round" stroke-linejoin="round" stroke-width="13.000000"
	d="
M1483.500000,837.000000 
	C1495.205322,833.471375 1507.134277,835.234070 1519.000000,835.500000 
"/>
<path fill="none" opacity="1.000000" stroke="#000000" stroke-linecap="round" stroke-linejoin="round" stroke-width="3.000000"
	d="
M1412.000000,1052.250000 
	C1406.280640,1055.049316 1406.080933,1055.462280 1406.995483,1061.500732 
	C1410.386108,1083.887695 1409.586060,1106.233398 1405.917358,1128.486328 
	C1404.968140,1134.243774 1403.000000,1139.833374 1401.500000,1145.500000 
"/>
<path fill="none" opacity="1.000000" stroke="#000000" stroke-linecap="round" stroke-linejoin="round" stroke-width="5.000000"
	d="
M1465.500000,1051.000000 
	C1465.500000,1051.166626 1465.427368,1051.399292 1465.510376,1051.490601 
	C1470.231934,1056.689453 1468.190186,1062.520264 1467.633545,1068.512451 
	C1465.800415,1088.244141 1465.370361,1107.926025 1469.772827,1127.551025 
	C1471.101929,1133.475586 1473.180786,1139.335205 1473.500000,1145.500000 
"/>
<path fill="none" opacity="1.000000" stroke="#000000" stroke-linecap="round" stroke-linejoin="round" stroke-width="12.000000"
	d="
M1592.500000,548.500000 
	C1589.643433,557.266418 1582.774292,562.901062 1576.500000,569.000000 
"/>
<path fill="none" opacity="1.000000" stroke="#000000" stroke-linecap="round" stroke-linejoin="round" stroke-width="22.000000"
	d="
M1599.500000,1760.000000 
	C1596.797241,1760.044678 1594.167236,1760.036743 1591.478027,1760.934082 
	C1579.980103,1764.770752 1567.885010,1764.710938 1555.998413,1765.984985 
	C1547.506592,1766.895142 1539.006226,1767.741577 1530.495483,1768.445801 
	C1528.453613,1768.614746 1527.297974,1770.066040 1526.086182,1771.100952 
	C1523.478760,1773.327515 1520.658325,1773.771606 1517.500000,1773.500000 
"/>
<path fill="none" opacity="1.000000" stroke="#000000" stroke-linecap="round" stroke-linejoin="round" stroke-width="22.000000"
	d="
M1358.500000,1772.750000 
	C1356.644043,1773.165405 1354.273560,1773.703247 1353.094849,1772.413330 
	C1348.754395,1767.662598 1342.901001,1768.193726 1337.491455,1767.575195 
	C1323.850708,1766.015137 1310.168823,1764.809814 1296.498657,1763.514038 
	C1292.333252,1763.119263 1288.420898,1761.784180 1284.511719,1760.465332 
	C1282.172607,1759.675903 1279.831055,1760.198242 1277.500000,1760.000000 
"/>
<path fill="none" opacity="1.000000" stroke="#000000" stroke-linecap="round" stroke-linejoin="round" stroke-width="6.000000"
	d="
M1595.500000,426.500000 
	C1588.167969,426.275848 1580.848511,425.499817 1573.500000,426.000000 
"/>
<path fill="none" opacity="1.000000" stroke="#000000" stroke-linecap="round" stroke-linejoin="round" stroke-width="13.000000"
	d="
M858.500000,1077.500000 
	C847.870972,1057.255371 840.796570,1035.514526 832.096619,1014.460083 
	C829.906372,1009.159485 825.677246,1009.540405 821.500000,1009.000000 
"/>
<path fill="none" opacity="1.000000" stroke="#000000" stroke-linecap="round" stroke-linejoin="round" stroke-width="13.000000"
	d="
M1096.000000,1009.500000 
	C1092.176270,1010.608948 1090.298584,1012.967407 1088.825684,1016.935303 
	C1082.397705,1034.252441 1075.410889,1051.364990 1068.427734,1068.470459 
	C1067.186279,1071.511475 1065.000000,1074.166748 1063.250000,1077.000000 
"/>
<path fill="none" opacity="1.000000" stroke="#000000" stroke-linecap="round" stroke-linejoin="round" stroke-width="22.000000"
	d="
M466.000000,1020.500000 
	C465.303986,1027.479492 462.786682,1034.264893 459.650452,1040.060913 
	C454.768768,1049.082764 455.185059,1058.204346 455.605530,1067.495239 
	C456.126068,1078.996948 456.626099,1090.491699 456.457306,1101.999390 
	C456.357025,1108.836182 455.833344,1115.666626 455.500000,1122.500000 
"/>
<path fill="none" opacity="1.000000" stroke="#000000" stroke-linecap="round" stroke-linejoin="round" stroke-width="22.000000"
	d="
M1690.000000,688.500000 
	C1686.824707,696.235352 1684.171021,704.174805 1680.053345,711.529846 
	C1676.238892,718.342896 1678.063721,725.872925 1678.674072,732.985046 
	C1679.403687,741.486267 1680.372070,749.979858 1681.000000,758.500000 
"/>
<path fill="none" opacity="1.000000" stroke="#000000" stroke-linecap="round" stroke-linejoin="round" stroke-width="18.000000"
	d="
M501.500000,1021.500000 
	C502.988678,1029.019409 506.049011,1036.098267 509.244141,1042.885010 
	C512.553589,1049.914917 512.267944,1056.881470 511.926270,1063.996460 
	C511.357880,1075.833252 511.542206,1087.665161 511.510864,1099.500000 
	C511.490509,1107.179443 511.003845,1114.883911 512.500000,1122.500000 
"/>
<path fill="none" opacity="1.000000" stroke="#000000" stroke-linecap="round" stroke-linejoin="round" stroke-width="11.000000"
	d="
M812.250000,1013.500000 
	C809.857117,1019.052856 812.778931,1024.190796 813.501221,1029.499878 
	C815.786011,1046.295044 818.984192,1062.926025 822.482849,1079.503662 
	C822.617554,1080.141846 822.500000,1080.833374 822.500000,1081.500000 
"/>
<path fill="none" opacity="1.000000" stroke="#000000" stroke-linecap="round" stroke-linejoin="round" stroke-width="7.000000"
	d="
M1278.500000,456.750000 
	C1283.000000,458.166656 1287.500000,459.583344 1292.000000,461.000000 
"/>
<path fill="none" opacity="1.000000" stroke="#000000" stroke-linecap="round" stroke-linejoin="round" stroke-width="13.000000"
	d="
M606.500000,696.500000 
	C602.871155,705.349060 599.894897,714.444824 595.629089,723.063904 
	C593.525940,727.313171 591.097839,731.202881 587.408203,733.873108 
	C584.387695,736.059265 582.716919,738.689636 581.469055,741.988281 
	C578.706482,749.291016 574.672058,755.937866 570.500000,762.500000 
"/>
<path fill="none" opacity="1.000000" stroke="#000000" stroke-linecap="round" stroke-linejoin="round" stroke-width="25.000000"
	d="
M608.000061,660.500000 
	C605.000061,667.000000 602.109253,673.553528 598.958740,679.979736 
	C597.091064,683.789368 593.806335,686.409119 590.526184,689.032776 
	C584.141968,694.138977 577.730225,699.078552 575.852112,707.968750 
	C574.705444,713.396545 570.220215,717.726746 569.500000,723.500000 
"/>
<path fill="none" opacity="1.000000" stroke="#000000" stroke-linecap="round" stroke-linejoin="round" stroke-width="25.000000"
	d="
M360.000000,660.500000 
	C361.666656,664.833313 363.097015,669.276611 365.050476,673.476501 
	C368.813110,681.566040 374.189636,688.327698 381.973419,693.043823 
	C384.998596,694.876770 386.978119,697.562439 388.665894,700.916504 
	C392.205994,707.951721 394.741791,715.373779 398.000000,722.500000 
"/>
<path fill="none" opacity="1.000000" stroke="#000000" stroke-linecap="round" stroke-linejoin="round" stroke-width="13.000000"
	d="
M1777.500000,1008.750000 
	C1782.564331,1009.884338 1785.277588,1013.000122 1787.120728,1017.955078 
	C1793.302856,1034.573364 1799.960205,1051.015869 1806.534912,1067.486084 
	C1807.791016,1070.632568 1809.516113,1073.587646 1812.000000,1076.000000 
"/>
<path fill="none" opacity="1.000000" stroke="#000000" stroke-linecap="round" stroke-linejoin="round" stroke-width="8.000000"
	d="
M361.500000,697.500000 
	C364.434021,708.263123 370.317200,717.769104 374.521393,727.991211 
	C374.686890,728.393555 375.138214,728.702271 375.504120,728.994873 
	C385.495819,736.984253 388.809784,749.348755 395.500702,759.499512 
	C396.162140,760.502991 396.833313,761.500000 397.500000,762.500000 
"/>
<path fill="none" opacity="1.000000" stroke="#000000" stroke-linecap="round" stroke-linejoin="round" stroke-width="11.000000"
	d="
M428.750000,374.000000 
	C425.916870,380.782379 422.955383,387.487579 419.657990,394.079041 
	C417.267090,398.858398 413.879211,401.064148 409.004395,402.022308 
	C398.888031,404.010651 388.940094,407.001343 378.500000,407.000000 
"/>
<path fill="none" opacity="1.000000" stroke="#000000" stroke-linecap="round" stroke-linejoin="round" stroke-width="22.000000"
	d="
M539.250000,374.000000 
	C542.378357,382.291382 545.744446,390.462921 550.439575,398.037445 
	C551.140503,399.168182 551.815002,400.162292 553.007812,400.469757 
	C564.039734,403.313751 575.086365,406.117249 586.502380,406.968231 
	C587.484497,407.041443 588.500000,406.666687 589.500000,406.500031 
"/>
<path fill="none" opacity="1.000000" stroke="#000000" stroke-linecap="round" stroke-linejoin="round" stroke-width="13.000000"
	d="
M143.500000,1008.750000 
	C138.206177,1009.927368 135.711227,1013.291809 133.837082,1018.440674 
	C127.773460,1035.099487 121.080406,1051.532593 114.420464,1067.967773 
	C113.315506,1070.694580 111.865608,1073.465942 109.500000,1075.500000 
"/>
<path fill="none" opacity="1.000000" stroke="#000000" stroke-linecap="round" stroke-linejoin="round" stroke-width="11.000000"
	d="
M1109.500000,1014.000000 
	C1110.358521,1015.942322 1110.691162,1017.554016 1110.218140,1020.041504 
	C1106.651733,1038.798828 1103.669800,1057.667114 1100.476440,1076.495972 
	C1100.414429,1076.861206 1100.000000,1077.166626 1099.750000,1077.500000 
"/>
<path fill="none" opacity="1.000000" stroke="#000000" stroke-linecap="round" stroke-linejoin="round" stroke-width="5.000000"
	d="
M496.500000,642.500000 
	C495.375549,648.716187 498.851257,653.300110 502.000000,658.000000 
"/>
<path fill="none" opacity="1.000000" stroke="#000000" stroke-linecap="round" stroke-linejoin="round" stroke-width="11.000000"
	d="
M156.500015,1017.000000 
	C153.166672,1036.166626 149.836700,1055.333984 146.490570,1074.498291 
	C146.313736,1075.511108 146.000015,1076.500000 145.750015,1077.500000 
"/>
<path fill="none" opacity="1.000000" stroke="#000000" stroke-linecap="round" stroke-linejoin="round" stroke-width="11.000000"
	d="
M1766.250000,1013.500000 
	C1764.735474,1015.271301 1764.514160,1017.158630 1764.937378,1019.511292 
	C1768.381592,1038.657959 1771.666260,1057.833374 1775.006714,1076.998779 
	C1775.037354,1077.174683 1775.166626,1077.333374 1775.250000,1077.500000 
"/>
<path fill="none" opacity="1.000000" stroke="#000000" stroke-linecap="round" stroke-linejoin="round" stroke-width="5.000000"
	d="
M471.500000,642.500000 
	C472.118896,648.536804 468.669769,653.130127 466.000000,658.000000 
"/>
<path fill="none" opacity="1.000000" stroke="#000000" stroke-linecap="round" stroke-linejoin="round" stroke-width="11.000000"
	d="
M126.500000,996.750000 
	C119.798508,996.842468 116.536049,1001.307129 113.442680,1006.465637 
	C105.784027,1019.237061 97.860840,1031.850464 89.981880,1044.488647 
	C87.856117,1047.898438 86.297638,1051.456665 86.000000,1055.500000 
"/>
<path fill="none" opacity="1.000000" stroke="#000000" stroke-linecap="round" stroke-linejoin="round" stroke-width="11.000000"
	d="
M843.000000,997.250000 
	C848.594299,997.743347 851.437012,1001.619690 854.021973,1005.987000 
	C861.113586,1017.968384 868.267029,1029.910400 875.951050,1041.532349 
	C878.760437,1045.781494 881.345032,1050.256836 882.000000,1055.500000 
"/>
<path fill="none" opacity="1.000000" stroke="#000000" stroke-linecap="round" stroke-linejoin="round" stroke-width="10.000000"
	d="
M1079.000000,997.250000 
	C1074.518799,997.799500 1071.307983,1000.021912 1068.957764,1003.974915 
	C1060.398071,1018.371826 1051.657837,1032.661255 1043.007935,1047.004761 
	C1041.430542,1049.620361 1040.127075,1052.358643 1040.000000,1055.500000 
"/>
<path fill="none" opacity="1.000000" stroke="#000000" stroke-linecap="round" stroke-linejoin="round" stroke-width="13.000000"
	d="
M1798.500000,997.750000 
	C1803.780518,998.012146 1805.254761,1002.600403 1807.431030,1006.043579 
	C1814.793213,1017.691528 1821.477905,1029.752686 1829.395508,1041.073120 
	C1832.181885,1045.057007 1834.166748,1049.703735 1835.500000,1054.500000 
"/>
<path fill="none" opacity="1.000000" stroke="#000000" stroke-linecap="round" stroke-linejoin="round" stroke-width="5.000000"
	d="
M501.500000,570.500000 
	C501.195068,575.134460 501.448669,579.640076 504.500000,583.500000 
"/>
<path fill="none" opacity="1.000000" stroke="#000000" stroke-linecap="round" stroke-linejoin="round" stroke-width="7.000000"
	d="
M545.500000,645.000000 
	C547.666626,649.666687 549.833313,654.333313 552.000000,659.000000 
"/>
<path fill="none" opacity="1.000000" stroke="#000000" stroke-linecap="round" stroke-linejoin="round" stroke-width="17.000000"
	d="
M568.500000,1718.500000 
	C569.177490,1727.400024 569.481750,1736.246460 567.100159,1745.027222 
	C566.459351,1747.389526 567.087280,1750.017090 567.936340,1752.521606 
	C569.492859,1757.112549 570.841919,1761.792847 571.932800,1766.515503 
	C572.564026,1769.248535 575.582458,1769.969360 576.250000,1772.500000 
"/>
<path fill="none" opacity="1.000000" stroke="#000000" stroke-linecap="round" stroke-linejoin="round" stroke-width="6.000000"
	d="
M422.500031,644.500000 
	C420.083344,649.666687 417.666687,654.833313 415.250031,660.000000 
"/>
<path fill="none" opacity="1.000000" stroke="#000000" stroke-linecap="round" stroke-linejoin="round" stroke-width="13.000000"
	d="
M1806.000000,939.000000 
	C1811.507690,945.387024 1814.859863,953.097351 1818.355225,960.567749 
	C1823.610840,971.800659 1831.327759,979.946167 1842.993774,984.266663 
	C1843.542114,984.469727 1844.000000,984.916687 1844.500000,985.250061 
"/>
<path fill="none" opacity="1.000000" stroke="#000000" stroke-linecap="round" stroke-linejoin="round" stroke-width="13.000000"
	d="
M851.500000,938.500000 
	C857.984314,945.060303 861.568481,953.496704 865.314819,961.585754 
	C870.449524,972.672180 878.700684,979.754333 889.500000,984.500000 
"/>
<path fill="none" opacity="1.000000" stroke="#000000" stroke-linecap="round" stroke-linejoin="round" stroke-width="13.000000"
	d="
M113.500000,941.500000 
	C107.568024,949.375305 103.940826,958.573730 99.226112,967.124695 
	C95.289909,974.263611 89.243561,978.412537 82.884109,982.310974 
	C80.375969,983.848511 77.641594,985.286133 75.000000,986.750000 
"/>
<path fill="none" opacity="1.000000" stroke="#000000" stroke-linecap="round" stroke-linejoin="round" stroke-width="13.000000"
	d="
M1069.500000,938.500000 
	C1063.744385,947.080200 1059.134399,956.295105 1054.489624,965.494751 
	C1050.274170,973.843933 1043.586548,979.469910 1035.030396,983.072144 
	C1034.288818,983.384277 1032.937256,983.155884 1032.750000,984.500000 
"/>
<path fill="none" opacity="1.000000" stroke="#000000" stroke-linecap="round" stroke-linejoin="round" stroke-width="12.000000"
	d="
M783.750000,1010.750000 
	C787.246460,1012.922607 787.648193,1016.234924 787.556030,1020.001343 
	C787.368591,1027.663452 787.635437,1035.336548 787.457458,1042.999023 
	C787.313293,1049.207764 787.886597,1055.348511 788.500000,1061.500000 
"/>
<path fill="none" opacity="1.000000" stroke="#000000" stroke-linecap="round" stroke-linejoin="round" stroke-width="3.000000"
	d="
M1616.000122,507.499969 
	C1618.666748,514.833313 1621.333374,522.166626 1624.000122,529.499939 
"/>
<path fill="none" opacity="1.000000" stroke="#000000" stroke-linecap="round" stroke-linejoin="round" stroke-width="13.000000"
	d="
M438.000000,370.500000 
	C438.494110,389.483643 444.125214,406.243042 459.000000,419.000000 
"/>
<path fill="none" opacity="1.000000" stroke="#000000" stroke-linecap="round" stroke-linejoin="round" stroke-width="3.000000"
	d="
M1260.000000,507.500000 
	C1256.875488,514.890015 1253.599487,522.222778 1251.500000,530.000000 
"/>
<path fill="none" opacity="1.000000" stroke="#000000" stroke-linecap="round" stroke-linejoin="round" stroke-width="11.000000"
	d="
M1228.500000,576.000000 
	C1227.065552,583.551575 1223.854614,590.708435 1223.500000,598.500000 
"/>
<path fill="none" opacity="1.000000" stroke="#000000" stroke-linecap="round" stroke-linejoin="round" stroke-width="13.000000"
	d="
M530.000000,370.500000 
	C528.450989,379.392365 527.828918,388.413635 524.621582,397.045197 
	C522.026123,404.030029 517.540955,409.342285 512.599915,414.593994 
	C511.281525,415.995270 509.201874,417.157990 509.000000,419.500000 
"/>
<path fill="none" opacity="1.000000" stroke="#000000" stroke-linecap="round" stroke-linejoin="round" stroke-width="11.000000"
	d="
M1740.250000,1014.250000 
	C1741.440186,1015.865662 1740.937866,1017.731323 1740.988647,1019.500305 
	C1741.390381,1033.498657 1739.934204,1047.541260 1742.000000,1061.500000 
"/>
<path fill="none" opacity="1.000000" stroke="#000000" stroke-linecap="round" stroke-linejoin="round" stroke-width="12.000000"
	d="
M1134.750000,1014.000000 
	C1134.666748,1023.666687 1134.683716,1033.335693 1134.463867,1042.999146 
	C1134.323608,1049.170166 1133.833252,1055.333374 1133.500000,1061.500000 
"/>
<path fill="none" opacity="1.000000" stroke="#000000" stroke-linecap="round" stroke-linejoin="round" stroke-width="11.000000"
	d="
M180.750000,1014.000000 
	C180.459213,1024.331665 179.602341,1034.628296 180.343323,1045.011230 
	C180.731308,1050.447754 179.500000,1056.000000 179.000000,1061.500000 
"/>
<path fill="none" opacity="1.000000" stroke="#000000" stroke-linecap="round" stroke-linejoin="round" stroke-width="3.000000"
	d="
M568.500000,1693.000000 
	C567.305664,1697.325928 565.943176,1701.598511 564.842163,1705.960205 
	C564.025757,1709.194092 564.047485,1712.303223 564.000000,1715.500000 
"/>
<path fill="none" opacity="1.000000" stroke="#000000" stroke-linecap="round" stroke-linejoin="round" stroke-width="5.000000"
	d="
M1308.000000,925.500000 
	C1304.166626,925.500000 1300.333374,925.500000 1296.500000,925.500000 
"/>
<path fill="none" opacity="1.000000" stroke="#000000" stroke-linecap="round" stroke-linejoin="round" stroke-width="5.000000"
	d="
M399.000000,1693.000000 
	C401.582092,1700.283569 404.459656,1707.508057 403.500000,1715.500000 
"/>
<path fill="none" opacity="1.000000" stroke="#000000" stroke-linecap="round" stroke-linejoin="round" stroke-width="14.000000"
	d="
M342.500000,606.500000 
	C343.981140,614.355774 347.329102,621.558533 351.139160,628.422791 
	C353.774139,633.169983 353.029694,638.162781 353.951294,643.009277 
	C354.544037,646.126648 354.666656,649.333313 355.000000,652.500000 
"/>
<path fill="none" opacity="1.000000" stroke="#000000" stroke-linecap="round" stroke-linejoin="round" stroke-width="15.000000"
	d="
M621.500000,555.500000 
	C617.014832,571.308044 604.528015,578.244812 590.510132,583.526855 
	C588.762878,584.185120 586.768066,584.742188 586.250000,587.000000 
"/>
<path fill="none" opacity="1.000000" stroke="#000000" stroke-linecap="round" stroke-linejoin="round" stroke-width="22.000000"
	d="
M1185.500000,688.500000 
	C1187.630493,695.059082 1190.318481,701.391785 1193.519043,707.490051 
	C1198.116455,716.249756 1198.374634,725.625916 1196.862427,734.977722 
	C1195.811768,741.473877 1195.370850,748.004883 1194.547607,754.506042 
	C1194.384033,755.797546 1194.833252,757.166687 1195.000000,758.500000 
"/>
<path fill="none" opacity="1.000000" stroke="#000000" stroke-linecap="round" stroke-linejoin="round" stroke-width="7.000000"
	d="
M1326.500000,790.000000 
	C1318.138672,802.665894 1313.413696,816.733765 1310.500000,831.500000 
"/>
<path fill="none" opacity="1.000000" stroke="#000000" stroke-linecap="round" stroke-linejoin="round" stroke-width="3.000000"
	d="
M1552.000000,754.500000 
	C1551.594849,759.879517 1553.700317,765.102051 1553.000000,770.500000 
"/>
<path fill="none" opacity="1.000000" stroke="#000000" stroke-linecap="round" stroke-linejoin="round" stroke-width="6.000000"
	d="
M1557.500000,805.500000 
	C1560.397339,814.389648 1564.043579,823.071228 1565.000000,832.500000 
"/>
<path fill="none" opacity="1.000000" stroke="#000000" stroke-linecap="round" stroke-linejoin="round" stroke-width="14.000000"
	d="
M346.500000,555.500000 
	C349.379395,567.340698 357.118256,574.796753 367.988800,579.525757 
	C372.223999,581.368164 376.333344,583.499939 380.500031,585.499939 
"/>
<path fill="none" opacity="1.000000" stroke="#000000" stroke-linecap="round" stroke-linejoin="round" stroke-width="3.000000"
	d="
M1541.500000,428.500000 
	C1540.848511,433.880859 1543.415649,438.373840 1545.500000,443.000000 
"/>
<path fill="none" opacity="1.000000" stroke="#000000" stroke-linecap="round" stroke-linejoin="round" stroke-width="3.000000"
	d="
M1333.500000,428.500000 
	C1334.172729,434.034943 1331.950684,438.797974 1329.500000,443.500000 
"/>
<path fill="none" opacity="1.000000" stroke="#000000" stroke-linecap="round" stroke-linejoin="round" stroke-width="10.000000"
	d="
M388.750000,1604.750000 
	C402.023743,1612.543579 405.144806,1625.815186 407.500000,1639.500000 
"/>
<path fill="none" opacity="1.000000" stroke="#000000" stroke-linecap="round" stroke-linejoin="round" stroke-width="4.000000"
	d="
M514.500000,327.500000 
	C508.936066,326.721832 504.841522,330.160645 501.137604,333.169403 
	C497.284454,336.299408 493.517578,339.542542 489.526001,342.534698 
	C483.426758,347.106842 483.437469,347.205200 483.515320,354.499847 
	C483.620270,364.333832 483.833344,374.166656 484.000000,384.000000 
"/>
<path fill="none" opacity="1.000000" stroke="#000000" stroke-linecap="round" stroke-linejoin="round" stroke-width="3.000000"
	d="
M1323.000000,754.500000 
	C1323.825439,759.698669 1321.045898,764.781067 1322.500000,770.000000 
"/>
<path fill="none" opacity="1.000000" stroke="#000000" stroke-linecap="round" stroke-linejoin="round" stroke-width="10.000000"
	d="
M580.500000,1605.500000 
	C569.687012,1608.082397 566.312927,1617.122681 563.099854,1626.036011 
	C561.674744,1629.989258 561.333313,1634.333374 560.500000,1638.500000 
"/>
<path fill="none" opacity="1.000000" stroke="#000000" stroke-linecap="round" stroke-linejoin="round" stroke-width="5.000000"
	d="
M484.000000,346.500000 
	C477.832886,343.213928 472.892548,338.312622 467.475464,334.031036 
	C463.362976,330.780579 459.359467,327.097534 453.500000,327.500000 
"/>
<path fill="none" opacity="1.000000" stroke="#000000" stroke-linecap="round" stroke-linejoin="round" stroke-width="8.000000"
	d="
M162.750000,921.500000 
	C162.833328,928.333313 162.883545,935.167358 163.019302,941.999634 
	C163.062408,944.168762 163.333328,946.333313 163.500000,948.500000 
"/>
<path fill="none" opacity="1.000000" stroke="#000000" stroke-linecap="round" stroke-linejoin="round" stroke-width="8.000000"
	d="
M341.500000,574.500000 
	C342.561340,585.795593 348.751099,594.165100 357.608490,600.344482 
	C362.686676,603.887268 361.159180,608.190125 360.878784,612.492126 
	C360.785461,613.924805 359.962097,615.417480 360.000000,617.000000 
"/>
<path fill="none" opacity="1.000000" stroke="#000000" stroke-linecap="round" stroke-linejoin="round" stroke-width="8.000000"
	d="
M626.000000,575.500000 
	C624.529419,588.133057 615.795715,595.825623 607.027100,603.530884 
	C605.657166,604.734680 604.501526,604.386963 602.988770,604.050537 
	C597.183228,602.759094 591.333313,601.666626 585.500000,600.500000 
"/>
<path fill="none" opacity="1.000000" stroke="#000000" stroke-linecap="round" stroke-linejoin="round" stroke-width="18.000000"
	d="
M399.500000,1718.500000 
	C398.286743,1726.694824 397.483765,1734.910645 400.048279,1742.984619 
	C401.083649,1746.244263 400.951111,1749.443848 399.923004,1752.473877 
	C398.409851,1756.933472 396.604218,1761.293701 396.028381,1766.003418 
	C395.807800,1767.807617 394.472351,1768.851318 393.438599,1769.941772 
	C391.108093,1772.400757 389.582062,1775.014160 390.000000,1778.500000 
"/>
<path fill="none" opacity="1.000000" stroke="#000000" stroke-linecap="round" stroke-linejoin="round" stroke-width="8.000000"
	d="
M408.500000,1121.750000 
	C399.500000,1121.833252 390.500000,1121.916626 381.500000,1122.000000 
"/>
<path fill="none" opacity="1.000000" stroke="#000000" stroke-linecap="round" stroke-linejoin="round" stroke-width="22.000000"
	d="
M600.000000,635.500000 
	C598.500000,640.500000 596.958740,645.488403 595.546448,650.513062 
	C595.344849,651.230286 595.186890,651.643433 594.519043,652.032715 
	C593.285645,652.751587 592.217224,653.750916 590.991577,654.485962 
	C584.256287,658.525208 578.110779,663.066589 575.432373,670.977112 
	C575.093506,671.977844 573.833313,672.666626 573.000000,673.500000 
"/>
<path fill="none" opacity="1.000000" stroke="#000000" stroke-linecap="round" stroke-linejoin="round" stroke-width="17.000000"
	d="
M398.000000,597.500000 
	C394.333344,605.333313 390.717743,613.191284 386.969788,620.985474 
	C385.802856,623.412231 385.828064,625.578674 386.962280,628.017517 
	C389.672455,633.845154 394.024323,638.791016 396.000000,645.000000 
"/>
<path fill="none" opacity="1.000000" stroke="#000000" stroke-linecap="round" stroke-linejoin="round" stroke-width="3.000000"
	d="
M1495.500000,1045.000000 
	C1486.270020,1047.779419 1477.892456,1052.406006 1469.500000,1057.000000 
"/>
<path fill="none" opacity="1.000000" stroke="#000000" stroke-linecap="round" stroke-linejoin="round" stroke-width="3.000000"
	d="
M1379.500000,1045.000000 
	C1388.820557,1047.583130 1397.236694,1052.126099 1405.500000,1057.000000 
"/>
<path fill="none" opacity="1.000000" stroke="#000000" stroke-linecap="round" stroke-linejoin="round" stroke-width="8.000000"
	d="
M408.500000,1147.750000 
	C400.166656,1147.833374 391.833344,1147.916626 383.500000,1148.000000 
"/>
<path fill="none" opacity="1.000000" stroke="#000000" stroke-linecap="round" stroke-linejoin="round" stroke-width="8.000000"
	d="
M582.500000,1670.000000 
	C590.401367,1672.081665 597.927917,1676.057251 606.500000,1674.750000 
"/>
<path fill="none" opacity="1.000000" stroke="#000000" stroke-linecap="round" stroke-linejoin="round" stroke-width="14.000000"
	d="
M1404.000000,1009.000000 
	C1400.926758,1009.433044 1398.465576,1008.335938 1396.000000,1005.310425 
	C1396.000000,1013.158936 1396.000000,1020.329468 1396.000000,1027.500000 
"/>
<path fill="none" opacity="1.000000" stroke="#000000" stroke-linecap="round" stroke-linejoin="round" stroke-width="15.000000"
	d="
M625.500000,606.500000 
	C622.096436,614.708008 619.653259,623.252502 615.260986,631.145264 
	C613.230774,634.793701 613.875427,639.990906 613.546204,644.503357 
	C613.345459,647.254822 613.182373,649.961304 612.000000,652.500000 
"/>
<path fill="none" opacity="1.000000" stroke="#000000" stroke-linecap="round" stroke-linejoin="round" stroke-width="21.000000"
	d="
M570.500000,599.500000 
	C574.166687,607.166687 577.742737,614.878723 581.551697,622.474060 
	C582.796753,624.956848 581.556396,626.739990 580.452332,628.469604 
	C577.168518,633.614258 574.480408,639.064819 571.750000,644.500000 
"/>
<path fill="none" opacity="1.000000" stroke="#000000" stroke-linecap="round" stroke-linejoin="round" stroke-width="5.000000"
	d="
M380.500000,600.500000 
	C374.574219,602.947449 368.082245,602.776184 362.000000,604.500000 
"/>
<path fill="none" opacity="1.000000" stroke="#000000" stroke-linecap="round" stroke-linejoin="round" stroke-width="3.000000"
	d="
M599.500000,624.000000 
	C594.000000,624.166687 588.500000,624.333313 583.000000,624.500000 
"/>
<path fill="none" opacity="1.000000" stroke="#000000" stroke-linecap="round" stroke-linejoin="round" stroke-width="5.000000"
	d="
M368.000000,635.500000 
	C368.618073,641.081360 371.068176,646.147522 372.500000,651.500000 
"/>
<path fill="none" opacity="1.000000" stroke="#000000" stroke-linecap="round" stroke-linejoin="round" stroke-width="6.000000"
	d="
M605.999939,605.000000 
	C606.499939,609.500000 606.999939,614.000000 607.499939,618.500000 
"/>
<path fill="none" opacity="1.000000" stroke="#000000" stroke-linecap="round" stroke-linejoin="round" stroke-width="3.000000"
	d="
M389.500000,1715.000000 
	C385.615906,1714.655762 382.276520,1716.217896 379.000000,1718.000000 
"/>
</svg>
